<svg width="1583" height="1583" viewBox="0 0 1583 1583" fill="none" xmlns="http://www.w3.org/2000/svg">
<circle cx="791.5" cy="791.5" r="715.5" stroke="#00FF88" stroke-width="152"/>
<rect x="486" y="478" width="612" height="614" rx="91" stroke="#00FF88" stroke-width="34"/>
<path d="M716.5 1015.5L581.85 909.704C578.472 907.05 576.5 902.992 576.5 898.696V776V646.583C576.5 641.581 579.168 636.959 583.5 634.459L718 556.805C722.332 554.304 727.668 554.304 732 556.805L866.5 634.459C870.832 636.959 873.5 641.581 873.5 646.583V735.249C873.5 737.706 872.853 740.12 871.624 742.249L833.549 808.197C830.381 813.684 831.294 820.616 835.774 825.096L869.399 858.721C872.025 861.347 875.586 862.822 879.299 862.822H907.5C915.232 862.822 921.5 856.554 921.5 848.822V638.5M828.178 552.763H993.5C1001.23 552.763 1007.5 559.032 1007.5 566.763V892M886.5 595H950.531C958.263 595 964.531 601.268 964.531 609V865.804C964.531 868.541 963.729 871.218 962.223 873.504L928.308 924.996C926.803 927.282 926 929.959 926 932.696V1015.5M880 928.5L743.859 821.704C740.476 819.05 738.5 814.989 738.5 810.689V790C738.5 782.268 744.768 776 752.5 776H790" stroke="#00FF88" stroke-width="34" stroke-linecap="round"/>
<path d="M796 1007L641.233 882.703C637.925 880.046 636 876.031 636 871.788V676.141C636 671.108 638.702 666.463 643.076 663.973L717.551 621.594C721.511 619.341 726.32 619.155 730.442 621.097L819.007 662.821C825.314 665.792 828.473 672.95 826.419 679.612L816.545 711.626C814.735 717.496 809.31 721.5 803.167 721.5H723.868H705C697.268 721.5 691 727.768 691 735.5V828.383C691 832.572 692.876 836.541 696.113 839.2L743.949 878.5L885.5 986.5" stroke="#00FF88" stroke-width="34" stroke-linecap="round"/>
<path d="M637 478.5V297M797 478.5V297M946.5 478.5V302" stroke="#00FF88" stroke-width="34" stroke-linecap="round"/>
<path d="M637 1271.5V1090M797 1271.5V1090M946.5 1271.5V1095" stroke="#00FF88" stroke-width="34" stroke-linecap="round"/>
<path d="M1098 629H1279.5M1098 789H1188.75H1279.5M1098 938.5H1274.5" stroke="#00FF88" stroke-width="34" stroke-linecap="round"/>
<path d="M305 629H486.5M305 789H395.75H486.5M305 938.5H481.5" stroke="#00FF88" stroke-width="34" stroke-linecap="round"/>
</svg>
